<svg xmlns="http://www.w3.org/2000/svg" width="344" height="64" viewBox="0 0 344 64" fill="none"><line y1="-0.5" x2="136" y2="-0.5" transform="matrix(-1 0 0 1 136 32)" stroke="url(#paint0_linear_4013_1112)"></line><circle cx="172" cy="32" r="31.5" fill="white" stroke="url(#paint1_linear_4013_1112)"></circle><mask id="mask0_4013_1112" style="mask-type:luminance" maskUnits="userSpaceOnUse" x="156" y="16" width="32" height="32"><path d="M156 16H188V48H156V16Z" fill="white"></path></mask><g mask="url(#mask0_4013_1112)"><path d="M187.375 36.0625V39.1875C187.375 40.2231 186.536 41.0625 185.5 41.0625H158.5C157.464 41.0625 156.625 40.2231 156.625 39.1875V36.0625H187.375Z" stroke="#2A2A2A" stroke-width="1.3" stroke-miterlimit="10" stroke-linecap="round" stroke-linejoin="round"></path><path d="M156.625 36.0625V21.0625C156.625 20.0269 157.464 19.1875 158.5 19.1875H185.5C186.536 19.1875 187.375 20.0269 187.375 21.0625V36.0625H156.625Z" stroke="#2A2A2A" stroke-width="1.3" stroke-miterlimit="10" stroke-linecap="round" stroke-linejoin="round"></path><path d="M169.164 38.5625H174.836" stroke="#2A2A2A" stroke-width="1.3" stroke-miterlimit="10" stroke-linecap="round" stroke-linejoin="round"></path><path d="M180.844 44.8125H178.344L176.906 41.0625H179.406L180.844 44.8125Z" stroke="#2A2A2A" stroke-width="1.3" stroke-miterlimit="10" stroke-linecap="round" stroke-linejoin="round"></path><path d="M165.656 44.8125H163.156L164.406 41.0625H166.906L165.656 44.8125Z" stroke="#2A2A2A" stroke-width="1.3" stroke-miterlimit="10" stroke-linecap="round" stroke-linejoin="round"></path><path d="M162.076 27.625C162.076 28.3154 161.517 28.875 160.826 28.875C160.136 28.875 159.576 28.3154 159.576 27.625C159.576 26.9346 160.136 26.375 160.826 26.375C161.517 26.375 162.076 26.9346 162.076 27.625Z" stroke="#2A2A2A" stroke-width="1.3" stroke-miterlimit="10" stroke-linecap="round" stroke-linejoin="round"></path><path d="M164.576 24.7187V30.5253C164.654 30.5387 167.049 30.5253 167.049 30.5253" stroke="#2A2A2A" stroke-width="1.3" stroke-miterlimit="10" stroke-linecap="round" stroke-linejoin="round"></path><path d="M169.561 24.7188V30.5312" stroke="#2A2A2A" stroke-width="1.3" stroke-miterlimit="10" stroke-linecap="round" stroke-linejoin="round"></path><path d="M182.548 24.7188H179.572V30.5312H182.548" stroke="#2A2A2A" stroke-width="1.3" stroke-miterlimit="10" stroke-linecap="round" stroke-linejoin="round"></path><path d="M182.329 27.625H179.572" stroke="#2A2A2A" stroke-width="1.3" stroke-miterlimit="10" stroke-linecap="round" stroke-linejoin="round"></path><path d="M172.117 24.7271L174.541 30.5312L177.017 24.7188" stroke="#2A2A2A" stroke-width="1.3" stroke-miterlimit="10" stroke-linecap="round" stroke-linejoin="round"></path></g><line x1="208" y1="31.5" x2="344" y2="31.5" stroke="url(#paint2_linear_4013_1112)"></line><defs><linearGradient id="paint0_linear_4013_1112" x1="0" y1="0.5" x2="136" y2="0.5" gradientUnits="userSpaceOnUse"><stop stop-color="#8957BD"></stop><stop offset="1" stop-color="#667EEA" stop-opacity="0"></stop></linearGradient><linearGradient id="paint1_linear_4013_1112" x1="172" y1="0" x2="172" y2="64" gradientUnits="userSpaceOnUse"><stop stop-color="#8957BD"></stop><stop offset="1" stop-color="#667EEA"></stop></linearGradient><linearGradient id="paint2_linear_4013_1112" x1="208" y1="32.5" x2="344" y2="32.5" gradientUnits="userSpaceOnUse"><stop stop-color="#8957BD"></stop><stop offset="1" stop-color="#667EEA" stop-opacity="0"></stop></linearGradient></defs></svg>